<svg width="289" height="73" viewBox="0 0 289 73" fill="none" xmlns="http://www.w3.org/2000/svg">
<path d="M90.4105 46.0597H88.2296L88.3487 45.4915H93.3611L93.242 46.0597H91.0519L89.7874 51.9976H89.1551L90.4105 46.0597ZM95.3499 45.4915H95.9821L95.3682 48.3872H98.9877L99.6017 45.4915H100.243L98.8595 51.9976H98.218L98.8686 48.9553H95.2491L94.5985 51.9976H93.9662L95.3499 45.4915ZM102.855 45.4915H106.932L106.813 46.0597H103.368L102.864 48.4055H105.869L105.759 48.9461H102.754L102.222 51.4294H105.75L105.631 51.9976H101.471L102.855 45.4915ZM112.486 45.4915H116.564L116.444 46.0597H112.999L112.495 48.4055H115.501L115.391 48.9461H112.385L111.854 51.4294H115.381L115.262 51.9976H111.102L112.486 45.4915ZM118.827 45.4915H120.935C121.338 45.4915 121.689 45.5557 121.989 45.684C122.288 45.8123 122.535 45.9894 122.731 46.2154C122.926 46.4415 123.07 46.7072 123.161 47.0127C123.259 47.312 123.308 47.6358 123.308 47.984C123.308 48.5582 123.213 49.0928 123.024 49.5876C122.835 50.0763 122.572 50.5009 122.236 50.8613C121.9 51.2156 121.503 51.4936 121.045 51.6952C120.587 51.8968 120.089 51.9976 119.551 51.9976H117.444L118.827 45.4915ZM119.67 51.4294C120.128 51.4294 120.541 51.3378 120.907 51.1545C121.28 50.9713 121.595 50.7269 121.851 50.4215C122.108 50.1099 122.303 49.7525 122.438 49.3493C122.578 48.9461 122.648 48.5246 122.648 48.0848C122.648 47.7916 122.609 47.5197 122.529 47.2692C122.456 47.0188 122.34 46.805 122.181 46.6278C122.028 46.4506 121.836 46.3132 121.604 46.2154C121.378 46.1116 121.112 46.0597 120.806 46.0597H119.34L118.195 51.4294H119.67ZM127.289 52.0434C126.91 52.0434 126.589 51.9884 126.327 51.8784C126.064 51.7624 125.853 51.6066 125.695 51.4111C125.536 51.2156 125.42 50.9896 125.346 50.733C125.279 50.4703 125.246 50.1893 125.246 49.89C125.246 49.5418 125.288 49.1691 125.374 48.772L126.07 45.4915H126.702L126.006 48.772C125.969 48.9492 125.939 49.1233 125.914 49.2944C125.896 49.4593 125.887 49.6212 125.887 49.78C125.887 50.0183 125.911 50.2412 125.96 50.4489C126.015 50.6505 126.101 50.8277 126.217 50.9804C126.339 51.127 126.495 51.2462 126.684 51.3378C126.88 51.4233 127.118 51.4661 127.399 51.4661C127.784 51.4661 128.12 51.3897 128.407 51.237C128.7 51.0782 128.948 50.8735 129.149 50.623C129.357 50.3665 129.525 50.0763 129.653 49.7525C129.781 49.4287 129.879 49.1019 129.946 48.772L130.643 45.4915H131.275L130.588 48.772C130.496 49.2119 130.362 49.6303 130.185 50.0274C130.007 50.4245 129.781 50.7727 129.506 51.0721C129.238 51.3653 128.92 51.6005 128.554 51.7776C128.187 51.9548 127.765 52.0434 127.289 52.0434ZM134.891 52.0525C134.531 52.0525 134.21 51.9762 133.929 51.8235C133.648 51.6646 133.41 51.4569 133.214 51.2003C133.025 50.9438 132.878 50.6505 132.774 50.3207C132.677 49.9908 132.628 49.6517 132.628 49.3035C132.628 48.8576 132.719 48.4086 132.903 47.9565C133.092 47.4983 133.352 47.086 133.682 46.7194C134.012 46.3468 134.403 46.0444 134.855 45.8123C135.307 45.574 135.801 45.4549 136.339 45.4549C136.895 45.4549 137.338 45.5862 137.668 45.8489C138.004 46.1116 138.224 46.4537 138.328 46.8752L137.75 47.1868C137.695 46.973 137.613 46.7927 137.503 46.6461C137.399 46.4995 137.277 46.3804 137.136 46.2888C136.996 46.1971 136.843 46.133 136.678 46.0963C136.513 46.0536 136.348 46.0322 136.183 46.0322C135.756 46.0322 135.362 46.133 135.001 46.3346C134.647 46.5301 134.341 46.7866 134.085 47.1043C133.828 47.4159 133.627 47.7641 133.48 48.1489C133.34 48.5338 133.269 48.9095 133.269 49.276C133.269 49.5754 133.309 49.8594 133.388 50.1282C133.474 50.3909 133.593 50.623 133.746 50.8246C133.899 51.0262 134.085 51.1851 134.305 51.3011C134.525 51.4172 134.772 51.4752 135.047 51.4752C135.218 51.4752 135.398 51.4539 135.588 51.4111C135.783 51.3622 135.976 51.2889 136.165 51.1912C136.354 51.0873 136.538 50.9621 136.715 50.8155C136.892 50.6628 137.051 50.4795 137.191 50.2657L137.668 50.5406C137.515 50.7849 137.329 51.0018 137.109 51.1912C136.895 51.3744 136.663 51.5302 136.412 51.6585C136.162 51.7868 135.905 51.8845 135.643 51.9517C135.38 52.0189 135.129 52.0525 134.891 52.0525ZM142.613 45.4915H143.162L144.335 51.9976H143.657L143.3 49.9633H140.56L139.35 51.9976H138.663L142.613 45.4915ZM143.263 49.4593L142.732 46.2429L140.798 49.4593H143.263ZM148.351 46.0597H146.17L146.289 45.4915H151.301L151.182 46.0597H148.992L147.728 51.9976H147.095L148.351 46.0597ZM153.29 45.5007H153.922L152.539 51.9976H151.907L153.29 45.5007ZM157.653 52.0434C157.287 52.0434 156.96 51.9701 156.673 51.8235C156.392 51.6707 156.153 51.4722 155.958 51.2278C155.762 50.9774 155.613 50.6902 155.509 50.3665C155.411 50.0427 155.362 49.7067 155.362 49.3585C155.362 48.8637 155.466 48.3811 155.674 47.9107C155.881 47.4403 156.156 47.0218 156.498 46.6553C156.847 46.2888 157.241 45.9955 157.681 45.7756C158.127 45.5557 158.588 45.4457 159.064 45.4457C159.431 45.4457 159.755 45.5221 160.036 45.6748C160.317 45.8275 160.552 46.0291 160.741 46.2796C160.937 46.5301 161.083 46.8172 161.181 47.1409C161.285 47.4647 161.337 47.8007 161.337 48.1489C161.337 48.6437 161.233 49.1264 161.025 49.5967C160.824 50.061 160.552 50.4764 160.21 50.843C159.868 51.2034 159.474 51.4936 159.028 51.7135C158.588 51.9334 158.13 52.0434 157.653 52.0434ZM157.781 51.4661C158.185 51.4661 158.56 51.3683 158.908 51.1729C159.263 50.9774 159.571 50.7238 159.834 50.4123C160.103 50.0946 160.314 49.7434 160.466 49.3585C160.619 48.9675 160.695 48.5796 160.695 48.1947C160.695 47.9076 160.656 47.6327 160.576 47.37C160.497 47.1073 160.381 46.8783 160.228 46.6828C160.081 46.4812 159.898 46.3224 159.678 46.2063C159.458 46.0902 159.211 46.0322 158.936 46.0322C158.533 46.0322 158.154 46.1299 157.8 46.3254C157.445 46.5209 157.134 46.7744 156.865 47.086C156.602 47.3975 156.395 47.7488 156.242 48.1398C156.089 48.5246 156.013 48.9125 156.013 49.3035C156.013 49.5906 156.049 49.8655 156.123 50.1282C156.202 50.3909 156.318 50.623 156.471 50.8246C156.624 51.0201 156.807 51.1759 157.021 51.292C157.241 51.408 157.494 51.4661 157.781 51.4661ZM164.165 45.4915H164.66L167.556 50.9071L168.701 45.5007H169.333L167.95 51.9976H167.409L164.541 46.6828L163.414 51.9976H162.782L164.165 45.4915ZM176.337 52.0525C175.976 52.0525 175.656 51.9762 175.375 51.8235C175.094 51.6646 174.855 51.4569 174.66 51.2003C174.47 50.9438 174.324 50.6505 174.22 50.3207C174.122 49.9908 174.073 49.6517 174.073 49.3035C174.073 48.8576 174.165 48.4086 174.348 47.9565C174.538 47.4983 174.797 47.086 175.127 46.7194C175.457 46.3468 175.848 46.0444 176.3 45.8123C176.752 45.574 177.247 45.4549 177.785 45.4549C178.34 45.4549 178.783 45.5862 179.113 45.8489C179.449 46.1116 179.669 46.4537 179.773 46.8752L179.196 47.1868C179.141 46.973 179.058 46.7927 178.948 46.6461C178.844 46.4995 178.722 46.3804 178.582 46.2888C178.441 46.1971 178.289 46.133 178.124 46.0963C177.959 46.0536 177.794 46.0322 177.629 46.0322C177.201 46.0322 176.807 46.133 176.447 46.3346C176.092 46.5301 175.787 46.7866 175.53 47.1043C175.274 47.4159 175.072 47.7641 174.926 48.1489C174.785 48.5338 174.715 48.9095 174.715 49.276C174.715 49.5754 174.754 49.8594 174.834 50.1282C174.919 50.3909 175.039 50.623 175.191 50.8246C175.344 51.0262 175.53 51.1851 175.75 51.3011C175.97 51.4172 176.218 51.4752 176.492 51.4752C176.664 51.4752 176.844 51.4539 177.033 51.4111C177.229 51.3622 177.421 51.2889 177.61 51.1912C177.8 51.0873 177.983 50.9621 178.16 50.8155C178.337 50.6628 178.496 50.4795 178.637 50.2657L179.113 50.5406C178.96 50.7849 178.774 51.0018 178.554 51.1912C178.34 51.3744 178.108 51.5302 177.858 51.6585C177.607 51.7868 177.351 51.8845 177.088 51.9517C176.825 52.0189 176.575 52.0525 176.337 52.0525ZM183.323 52.0434C182.956 52.0434 182.629 51.9701 182.342 51.8235C182.061 51.6707 181.823 51.4722 181.628 51.2278C181.432 50.9774 181.282 50.6902 181.179 50.3665C181.081 50.0427 181.032 49.7067 181.032 49.3585C181.032 48.8637 181.136 48.3811 181.344 47.9107C181.551 47.4403 181.826 47.0218 182.168 46.6553C182.516 46.2888 182.91 45.9955 183.35 45.7756C183.796 45.5557 184.257 45.4457 184.734 45.4457C185.101 45.4457 185.424 45.5221 185.705 45.6748C185.986 45.8275 186.221 46.0291 186.411 46.2796C186.606 46.5301 186.753 46.8172 186.851 47.1409C186.955 47.4647 187.006 47.8007 187.006 48.1489C187.006 48.6437 186.903 49.1264 186.695 49.5967C186.493 50.061 186.221 50.4764 185.879 50.843C185.537 51.2034 185.143 51.4936 184.697 51.7135C184.257 51.9334 183.799 52.0434 183.323 52.0434ZM183.451 51.4661C183.854 51.4661 184.23 51.3683 184.578 51.1729C184.933 50.9774 185.241 50.7238 185.504 50.4123C185.772 50.0946 185.983 49.7434 186.136 49.3585C186.289 48.9675 186.365 48.5796 186.365 48.1947C186.365 47.9076 186.325 47.6327 186.246 47.37C186.167 47.1073 186.05 46.8783 185.898 46.6828C185.751 46.4812 185.568 46.3224 185.348 46.2063C185.128 46.0902 184.881 46.0322 184.606 46.0322C184.202 46.0322 183.824 46.1299 183.469 46.3254C183.115 46.5209 182.804 46.7744 182.535 47.086C182.272 47.3975 182.064 47.7488 181.912 48.1398C181.759 48.5246 181.683 48.9125 181.683 49.3035C181.683 49.5906 181.719 49.8655 181.793 50.1282C181.872 50.3909 181.988 50.623 182.141 50.8246C182.293 51.0201 182.477 51.1759 182.691 51.292C182.91 51.408 183.164 51.4661 183.451 51.4661ZM189.835 45.4915H190.33L193.226 50.9071L194.371 45.5007H195.003L193.62 51.9976H193.079L190.211 46.6828L189.084 51.9976H188.451L189.835 45.4915ZM197.626 45.4915H198.121L201.017 50.9071L202.162 45.5007H202.794L201.411 51.9976H200.87L198.002 46.6828L196.875 51.9976H196.242L197.626 45.4915ZM205.417 45.4915H209.495L209.376 46.0597H205.93L205.426 48.4055H208.432L208.322 48.9461H205.316L204.785 51.4294H208.313L208.194 51.9976H204.033L205.417 45.4915ZM212.733 52.0525C212.372 52.0525 212.051 51.9762 211.77 51.8235C211.489 51.6646 211.251 51.4569 211.056 51.2003C210.866 50.9438 210.72 50.6505 210.616 50.3207C210.518 49.9908 210.469 49.6517 210.469 49.3035C210.469 48.8576 210.561 48.4086 210.744 47.9565C210.934 47.4983 211.193 47.086 211.523 46.7194C211.853 46.3468 212.244 46.0444 212.696 45.8123C213.148 45.574 213.643 45.4549 214.18 45.4549C214.736 45.4549 215.179 45.5862 215.509 45.8489C215.845 46.1116 216.065 46.4537 216.169 46.8752L215.592 47.1868C215.537 46.973 215.454 46.7927 215.344 46.6461C215.24 46.4995 215.118 46.3804 214.978 46.2888C214.837 46.1971 214.684 46.133 214.519 46.0963C214.355 46.0536 214.19 46.0322 214.025 46.0322C213.597 46.0322 213.203 46.133 212.843 46.3346C212.488 46.5301 212.183 46.7866 211.926 47.1043C211.67 47.4159 211.468 47.7641 211.321 48.1489C211.181 48.5338 211.111 48.9095 211.111 49.276C211.111 49.5754 211.15 49.8594 211.23 50.1282C211.315 50.3909 211.434 50.623 211.587 50.8246C211.74 51.0262 211.926 51.1851 212.146 51.3011C212.366 51.4172 212.614 51.4752 212.888 51.4752C213.059 51.4752 213.24 51.4539 213.429 51.4111C213.625 51.3622 213.817 51.2889 214.006 51.1912C214.196 51.0873 214.379 50.9621 214.556 50.8155C214.733 50.6628 214.892 50.4795 215.033 50.2657L215.509 50.5406C215.356 50.7849 215.17 51.0018 214.95 51.1912C214.736 51.3744 214.504 51.5302 214.254 51.6585C214.003 51.7868 213.747 51.8845 213.484 51.9517C213.221 52.0189 212.971 52.0525 212.733 52.0525ZM219.922 46.0597H217.742L217.861 45.4915H222.873L222.754 46.0597H220.564L219.299 51.9976H218.667L219.922 46.0597ZM224.862 45.5007H225.494L224.11 51.9976H223.478L224.862 45.5007ZM229.225 52.0434C228.858 52.0434 228.531 51.9701 228.244 51.8235C227.963 51.6707 227.725 51.4722 227.529 51.2278C227.334 50.9774 227.184 50.6902 227.08 50.3665C226.983 50.0427 226.934 49.7067 226.934 49.3585C226.934 48.8637 227.038 48.3811 227.245 47.9107C227.453 47.4403 227.728 47.0218 228.07 46.6553C228.418 46.2888 228.812 45.9955 229.252 45.7756C229.698 45.5557 230.159 45.4457 230.636 45.4457C231.002 45.4457 231.326 45.5221 231.607 45.6748C231.888 45.8275 232.123 46.0291 232.313 46.2796C232.508 46.5301 232.655 46.8172 232.753 47.1409C232.856 47.4647 232.908 47.8007 232.908 48.1489C232.908 48.6437 232.805 49.1264 232.597 49.5967C232.395 50.061 232.123 50.4764 231.781 50.843C231.439 51.2034 231.045 51.4936 230.599 51.7135C230.159 51.9334 229.701 52.0434 229.225 52.0434ZM229.353 51.4661C229.756 51.4661 230.132 51.3683 230.48 51.1729C230.834 50.9774 231.143 50.7238 231.406 50.4123C231.674 50.0946 231.885 49.7434 232.038 49.3585C232.191 48.9675 232.267 48.5796 232.267 48.1947C232.267 47.9076 232.227 47.6327 232.148 47.37C232.068 47.1073 231.952 46.8783 231.8 46.6828C231.653 46.4812 231.47 46.3224 231.25 46.2063C231.03 46.0902 230.782 46.0322 230.508 46.0322C230.104 46.0322 229.726 46.1299 229.371 46.3254C229.017 46.5209 228.705 46.7744 228.437 47.086C228.174 47.3975 227.966 47.7488 227.814 48.1398C227.661 48.5246 227.584 48.9125 227.584 49.3035C227.584 49.5906 227.621 49.8655 227.694 50.1282C227.774 50.3909 227.89 50.623 228.043 50.8246C228.195 51.0201 228.379 51.1759 228.592 51.292C228.812 51.408 229.066 51.4661 229.353 51.4661ZM235.737 45.4915H236.232L239.127 50.9071L240.273 45.5007H240.905L239.521 51.9976H238.981L236.113 46.6828L234.986 51.9976H234.353L235.737 45.4915Z" fill="black"/>
<path d="M87.6114 34.3882V21.3973H96.3391V23.6112H90.1364V26.9596H95.2961V29.0089H90.1364V34.3882H87.6114ZM103.055 34.5712C102.274 34.5712 101.573 34.437 100.951 34.1686C100.329 33.9003 99.7979 33.5404 99.3588 33.0891C98.9319 32.6256 98.6025 32.095 98.3707 31.4972C98.139 30.8995 98.0231 30.2713 98.0231 29.6127C98.0231 28.9418 98.139 28.3075 98.3707 27.7098C98.6025 27.1121 98.9319 26.5875 99.3588 26.1362C99.7979 25.6727 100.329 25.3067 100.951 25.0384C101.573 24.77 102.274 24.6359 103.055 24.6359C103.835 24.6359 104.531 24.77 105.141 25.0384C105.763 25.3067 106.287 25.6727 106.714 26.1362C107.153 26.5875 107.489 27.1121 107.721 27.7098C107.952 28.3075 108.068 28.9418 108.068 29.6127C108.068 30.2713 107.952 30.8995 107.721 31.4972C107.489 32.095 107.159 32.6256 106.732 33.0891C106.306 33.5404 105.781 33.9003 105.159 34.1686C104.537 34.437 103.835 34.5712 103.055 34.5712ZM100.548 29.6127C100.548 30.0396 100.609 30.4299 100.731 30.7837C100.865 31.1252 101.042 31.4241 101.262 31.6802C101.493 31.9364 101.762 32.1376 102.067 32.284C102.372 32.4182 102.701 32.4853 103.055 32.4853C103.409 32.4853 103.738 32.4182 104.043 32.284C104.348 32.1376 104.61 31.9364 104.83 31.6802C105.061 31.4241 105.238 31.1191 105.36 30.7654C105.494 30.4116 105.561 30.0213 105.561 29.5944C105.561 29.1796 105.494 28.7954 105.36 28.4416C105.238 28.0879 105.061 27.7829 104.83 27.5268C104.61 27.2706 104.348 27.0755 104.043 26.9413C103.738 26.7949 103.409 26.7217 103.055 26.7217C102.701 26.7217 102.372 26.7949 102.067 26.9413C101.762 27.0877 101.493 27.2889 101.262 27.5451C101.042 27.8012 100.865 28.1062 100.731 28.4599C100.609 28.8137 100.548 29.1979 100.548 29.6127ZM116.804 26.923C116.06 26.9352 115.395 27.0816 114.81 27.3621C114.224 27.6305 113.803 28.0391 113.547 28.588V34.3882H111.095V24.8005H113.346V26.8498C113.517 26.5205 113.718 26.2277 113.95 25.9715C114.181 25.7032 114.432 25.4714 114.7 25.2763C114.968 25.0811 115.237 24.9347 115.505 24.8371C115.785 24.7273 116.054 24.6724 116.31 24.6724C116.444 24.6724 116.542 24.6724 116.603 24.6724C116.676 24.6724 116.743 24.6785 116.804 24.6907V26.923ZM134.437 34.3882H131.985V29.0089C131.985 28.2404 131.851 27.6793 131.583 27.3255C131.327 26.9718 130.967 26.7949 130.503 26.7949C130.015 26.7949 129.558 26.984 129.131 27.3621C128.704 27.7281 128.399 28.2099 128.216 28.8076V34.3882H125.764V29.0089C125.764 28.2404 125.63 27.6793 125.362 27.3255C125.106 26.9718 124.746 26.7949 124.282 26.7949C123.807 26.7949 123.349 26.9779 122.91 27.3438C122.483 27.7098 122.178 28.1916 121.995 28.7893V34.3882H119.543V24.8005H121.757V26.5753C122.111 25.9532 122.593 25.4775 123.203 25.1482C123.825 24.8066 124.532 24.6359 125.325 24.6359C126.13 24.6359 126.752 24.831 127.192 25.2214C127.631 25.6117 127.911 26.0935 128.033 26.6668C128.424 26.0081 128.918 25.508 129.515 25.1665C130.113 24.8127 130.796 24.6359 131.565 24.6359C132.15 24.6359 132.632 24.7456 133.01 24.9652C133.388 25.1848 133.681 25.4714 133.888 25.8252C134.096 26.1789 134.236 26.5814 134.309 27.0328C134.395 27.4841 134.437 27.9415 134.437 28.405V34.3882ZM142.39 34.5712C141.622 34.5712 140.927 34.4431 140.304 34.1869C139.682 33.9186 139.152 33.5587 138.713 33.1074C138.273 32.6561 137.932 32.1315 137.688 31.5338C137.456 30.9361 137.34 30.3079 137.34 29.6492C137.34 28.9662 137.456 28.3258 137.688 27.7281C137.92 27.1182 138.255 26.5875 138.694 26.1362C139.133 25.6727 139.664 25.3067 140.286 25.0384C140.92 24.77 141.628 24.6359 142.409 24.6359C143.189 24.6359 143.885 24.77 144.494 25.0384C145.117 25.3067 145.641 25.6666 146.068 26.1179C146.507 26.5692 146.836 27.0938 147.056 27.6915C147.288 28.2892 147.404 28.9113 147.404 29.5578C147.404 29.7163 147.398 29.8688 147.385 30.0152C147.385 30.1616 147.373 30.2835 147.349 30.3811H139.939C139.975 30.7593 140.067 31.0947 140.213 31.3875C140.359 31.6802 140.548 31.9303 140.78 32.1376C141.012 32.345 141.274 32.5036 141.567 32.6134C141.86 32.7232 142.165 32.778 142.482 32.778C142.97 32.778 143.427 32.6622 143.854 32.4304C144.293 32.1864 144.592 31.8693 144.751 31.479L146.855 32.0645C146.501 32.7963 145.934 33.4001 145.153 33.8759C144.385 34.3394 143.464 34.5712 142.39 34.5712ZM144.879 28.7893C144.818 28.0696 144.549 27.4963 144.074 27.0694C143.61 26.6302 143.043 26.4107 142.372 26.4107C142.043 26.4107 141.732 26.4717 141.439 26.5936C141.158 26.7034 140.908 26.862 140.689 27.0694C140.469 27.2767 140.286 27.5268 140.14 27.8195C140.006 28.1123 139.926 28.4355 139.902 28.7893H144.879ZM154.716 34.5712C153.947 34.5712 153.252 34.4431 152.63 34.1869C152.008 33.9186 151.477 33.5587 151.038 33.1074C150.599 32.6561 150.257 32.1315 150.013 31.5338C149.782 30.9361 149.666 30.3079 149.666 29.6492C149.666 28.9662 149.782 28.3258 150.013 27.7281C150.245 27.1182 150.581 26.5875 151.02 26.1362C151.459 25.6727 151.99 25.3067 152.612 25.0384C153.246 24.77 153.953 24.6359 154.734 24.6359C155.515 24.6359 156.21 24.77 156.82 25.0384C157.442 25.3067 157.967 25.6666 158.394 26.1179C158.833 26.5692 159.162 27.0938 159.382 27.6915C159.613 28.2892 159.729 28.9113 159.729 29.5578C159.729 29.7163 159.723 29.8688 159.711 30.0152C159.711 30.1616 159.699 30.2835 159.674 30.3811H152.264C152.301 30.7593 152.392 31.0947 152.538 31.3875C152.685 31.6802 152.874 31.9303 153.106 32.1376C153.337 32.345 153.6 32.5036 153.892 32.6134C154.185 32.7232 154.49 32.778 154.807 32.778C155.295 32.778 155.753 32.6622 156.18 32.4304C156.619 32.1864 156.918 31.8693 157.076 31.479L159.18 32.0645C158.827 32.7963 158.259 33.4001 157.479 33.8759C156.71 34.3394 155.789 34.5712 154.716 34.5712ZM157.204 28.7893C157.143 28.0696 156.875 27.4963 156.399 27.0694C155.936 26.6302 155.368 26.4107 154.698 26.4107C154.368 26.4107 154.057 26.4717 153.764 26.5936C153.484 26.7034 153.234 26.862 153.014 27.0694C152.795 27.2767 152.612 27.5268 152.465 27.8195C152.331 28.1123 152.252 28.4355 152.227 28.7893H157.204ZM177.603 33.2538V34.3882H168.875V21.3973H177.438V22.5317H170.156V27.2157H176.505V28.2953H170.156V33.2538H177.603ZM181.379 24.8554L184.233 28.588L184.38 28.8625L184.526 28.588L187.38 24.8554H188.716L185.075 29.6492L188.716 34.3882H187.38L184.526 30.6739L184.38 30.4177L184.233 30.6739L181.379 34.3882H180.043L183.684 29.6492L180.043 24.8554H181.379ZM196.6 34.5712C195.795 34.5712 195.082 34.3699 194.46 33.9674C193.85 33.5526 193.356 33.0342 192.978 32.4121V38.2855H191.733V24.8554H192.85V26.7034C193.24 26.1057 193.746 25.6239 194.368 25.258C194.99 24.8798 195.667 24.6907 196.399 24.6907C197.058 24.6907 197.662 24.831 198.211 25.1116C198.76 25.3799 199.235 25.7459 199.638 26.2094C200.04 26.6607 200.351 27.1852 200.571 27.7829C200.803 28.3807 200.919 28.9967 200.919 29.631C200.919 30.3018 200.815 30.9361 200.608 31.5338C200.4 32.1315 200.101 32.6561 199.711 33.1074C199.333 33.5587 198.875 33.9186 198.339 34.1869C197.814 34.4431 197.235 34.5712 196.6 34.5712ZM196.253 33.4733C196.765 33.4733 197.229 33.3635 197.643 33.144C198.07 32.9244 198.43 32.6378 198.723 32.284C199.028 31.9181 199.26 31.5094 199.418 31.0581C199.577 30.5946 199.656 30.1189 199.656 29.631C199.656 29.1186 199.565 28.6307 199.382 28.1672C199.199 27.7037 198.949 27.295 198.631 26.9413C198.314 26.5875 197.936 26.307 197.497 26.0996C197.07 25.8923 196.607 25.7886 196.106 25.7886C195.789 25.7886 195.454 25.8557 195.1 25.9898C194.759 26.1118 194.435 26.2826 194.13 26.5022C193.838 26.7095 193.581 26.9596 193.362 27.2523C193.155 27.5329 193.026 27.8317 192.978 28.1489V31.0764C193.124 31.418 193.307 31.7351 193.527 32.0279C193.758 32.3206 194.014 32.5768 194.295 32.7963C194.588 33.0037 194.899 33.1684 195.228 33.2904C195.558 33.4123 195.899 33.4733 196.253 33.4733ZM209.156 25.9532C208.314 25.9776 207.582 26.2094 206.96 26.6485C206.338 27.0877 205.899 27.6915 205.643 28.4599V34.3882H204.398V24.8554H205.569V27.1426C205.923 26.4107 206.399 25.8374 206.997 25.4226C207.594 25.0079 208.235 24.8005 208.918 24.8005C209.015 24.8005 209.095 24.8066 209.156 24.8188V25.9532ZM215.82 34.5712C215.125 34.5712 214.484 34.4431 213.899 34.1869C213.325 33.9186 212.825 33.5587 212.398 33.1074C211.971 32.6439 211.636 32.1133 211.392 31.5155C211.16 30.9178 211.044 30.2774 211.044 29.5944C211.044 28.9235 211.16 28.2953 211.392 27.7098C211.636 27.1121 211.965 26.5936 212.38 26.1545C212.807 25.7032 213.313 25.3494 213.899 25.0933C214.484 24.8249 215.118 24.6907 215.802 24.6907C216.497 24.6907 217.131 24.8249 217.704 25.0933C218.29 25.3494 218.79 25.7032 219.205 26.1545C219.619 26.6058 219.943 27.1243 220.175 27.7098C220.406 28.2953 220.522 28.9174 220.522 29.5761C220.522 29.6736 220.522 29.7712 220.522 29.8688C220.522 29.9664 220.516 30.0335 220.504 30.0701H212.343C212.38 30.5824 212.496 31.0581 212.691 31.4972C212.898 31.9242 213.161 32.2962 213.478 32.6134C213.795 32.9305 214.155 33.1806 214.557 33.3635C214.972 33.5343 215.411 33.6197 215.875 33.6197C216.18 33.6197 216.485 33.577 216.79 33.4916C217.094 33.4062 217.375 33.2904 217.631 33.144C217.887 32.9976 218.119 32.8207 218.326 32.6134C218.534 32.3938 218.692 32.1559 218.802 31.8998L219.882 32.1925C219.735 32.5463 219.528 32.8695 219.26 33.1623C218.991 33.4428 218.68 33.6929 218.326 33.9125C217.973 34.1198 217.582 34.2784 217.155 34.3882C216.729 34.5102 216.283 34.5712 215.82 34.5712ZM219.333 29.1186C219.296 28.6063 219.174 28.1428 218.967 27.7281C218.772 27.3011 218.516 26.9352 218.198 26.6302C217.893 26.3253 217.534 26.0874 217.119 25.9166C216.716 25.7459 216.283 25.6605 215.82 25.6605C215.356 25.6605 214.917 25.7459 214.502 25.9166C214.088 26.0874 213.722 26.3253 213.405 26.6302C213.1 26.9352 212.85 27.3011 212.654 27.7281C212.471 28.155 212.362 28.6185 212.325 29.1186H219.333ZM226.979 34.5712C226.235 34.5712 225.51 34.4492 224.802 34.2052C224.095 33.9613 223.485 33.6075 222.972 33.144L223.54 32.3023C224.076 32.7414 224.619 33.0708 225.168 33.2904C225.729 33.5099 226.327 33.6197 226.961 33.6197C227.73 33.6197 228.34 33.4672 228.791 33.1623C229.254 32.8451 229.486 32.3999 229.486 31.8266C229.486 31.5582 229.425 31.3387 229.303 31.1679C229.181 30.9849 228.998 30.8264 228.754 30.6922C228.522 30.558 228.224 30.4421 227.858 30.3445C227.504 30.2348 227.089 30.125 226.613 30.0152C226.065 29.881 225.589 29.7468 225.186 29.6127C224.784 29.4785 224.448 29.326 224.18 29.1552C223.924 28.9845 223.729 28.7771 223.594 28.5331C223.472 28.277 223.412 27.9598 223.412 27.5817C223.412 27.106 223.503 26.6851 223.686 26.3192C223.881 25.9532 224.137 25.6544 224.454 25.4226C224.784 25.1787 225.162 24.9957 225.589 24.8737C226.028 24.7517 226.492 24.6907 226.979 24.6907C227.711 24.6907 228.376 24.8127 228.974 25.0567C229.572 25.2884 230.053 25.5995 230.419 25.9898L229.815 26.7217C229.462 26.3558 229.029 26.0813 228.516 25.8984C228.016 25.7154 227.492 25.6239 226.943 25.6239C226.613 25.6239 226.309 25.6605 226.028 25.7337C225.747 25.7947 225.497 25.8984 225.278 26.0447C225.07 26.1911 224.906 26.3802 224.784 26.6119C224.662 26.8315 224.601 27.0938 224.601 27.3987C224.601 27.6549 224.644 27.8622 224.729 28.0208C224.814 28.1794 224.955 28.3197 225.15 28.4416C225.345 28.5514 225.589 28.6551 225.882 28.7527C226.187 28.8381 226.552 28.9296 226.979 29.0271C227.589 29.1735 228.126 29.3199 228.59 29.4663C229.053 29.6127 229.437 29.7834 229.742 29.9786C230.059 30.1738 230.297 30.4116 230.456 30.6922C230.614 30.9727 230.694 31.3143 230.694 31.7168C230.694 32.5951 230.358 33.2904 229.687 33.8027C229.016 34.315 228.114 34.5712 226.979 34.5712ZM237.268 34.5712C236.524 34.5712 235.798 34.4492 235.091 34.2052C234.383 33.9613 233.773 33.6075 233.261 33.144L233.828 32.3023C234.365 32.7414 234.908 33.0708 235.457 33.2904C236.018 33.5099 236.615 33.6197 237.25 33.6197C238.018 33.6197 238.628 33.4672 239.079 33.1623C239.543 32.8451 239.775 32.3999 239.775 31.8266C239.775 31.5582 239.714 31.3387 239.592 31.1679C239.47 30.9849 239.287 30.8264 239.043 30.6922C238.811 30.558 238.512 30.4421 238.146 30.3445C237.792 30.2348 237.378 30.125 236.902 30.0152C236.353 29.881 235.877 29.7468 235.475 29.6127C235.072 29.4785 234.737 29.326 234.469 29.1552C234.212 28.9845 234.017 28.7771 233.883 28.5331C233.761 28.277 233.7 27.9598 233.7 27.5817C233.7 27.106 233.792 26.6851 233.974 26.3192C234.17 25.9532 234.426 25.6544 234.743 25.4226C235.072 25.1787 235.45 24.9957 235.877 24.8737C236.317 24.7517 236.78 24.6907 237.268 24.6907C238 24.6907 238.665 24.8127 239.262 25.0567C239.86 25.2884 240.342 25.5995 240.708 25.9898L240.104 26.7217C239.75 26.3558 239.317 26.0813 238.805 25.8984C238.305 25.7154 237.78 25.6239 237.231 25.6239C236.902 25.6239 236.597 25.6605 236.317 25.7337C236.036 25.7947 235.786 25.8984 235.566 26.0447C235.359 26.1911 235.194 26.3802 235.072 26.6119C234.95 26.8315 234.889 27.0938 234.889 27.3987C234.889 27.6549 234.932 27.8622 235.017 28.0208C235.103 28.1794 235.243 28.3197 235.438 28.4416C235.633 28.5514 235.877 28.6551 236.17 28.7527C236.475 28.8381 236.841 28.9296 237.268 29.0271C237.878 29.1735 238.415 29.3199 238.878 29.4663C239.342 29.6127 239.726 29.7834 240.031 29.9786C240.348 30.1738 240.586 30.4116 240.744 30.6922C240.903 30.9727 240.982 31.3143 240.982 31.7168C240.982 32.5951 240.647 33.2904 239.976 33.8027C239.305 34.315 238.402 34.5712 237.268 34.5712Z" fill="#444444"/>
<circle cx="52.9097" cy="43.1851" r="23.7147" transform="rotate(-163.7 52.9097 43.1851)" fill="#2B6A6C"/>
<circle cx="19.6116" cy="19.6115" r="15.8098" transform="rotate(-163.7 19.6116 19.6115)" fill="#B80D48"/>
<circle cx="43.2429" cy="12.0267" r="7.9049" transform="rotate(-163.7 43.2429 12.0267)" fill="#F29724"/>
</svg>
